<mxfile host="app.diagrams.net" modified="2024-05-25T06:52:18.663Z" agent="Mozilla/5.0 (X11; Ubuntu; Linux x86_64; rv:125.0) Gecko/20100101 Firefox/125.0" etag="SbaiBa0ahiCj-S5bcgzr" version="24.4.8" type="github">
  <diagram name="Page-1" id="alDKycs5oU3pcxEAZStF">
    <mxGraphModel dx="3377" dy="907" grid="1" gridSize="10" guides="1" tooltips="1" connect="1" arrows="1" fold="1" page="1" pageScale="1" pageWidth="850" pageHeight="1100" math="0" shadow="0">
      <root>
        <mxCell id="0" />
        <mxCell id="1" parent="0" />
        <mxCell id="2lmS-5YsYihyagzqlJ5x-39" value="" style="rounded=0;whiteSpace=wrap;html=1;strokeColor=#FF3333;" vertex="1" parent="1">
          <mxGeometry x="-1520" y="105" width="1250" height="1125" as="geometry" />
        </mxCell>
        <mxCell id="2lmS-5YsYihyagzqlJ5x-24" value="" style="rounded=0;whiteSpace=wrap;html=1;strokeColor=#61D5FF;fillColor=#61D5FF;" vertex="1" parent="1">
          <mxGeometry x="-498" y="750" width="120" height="120" as="geometry" />
        </mxCell>
        <mxCell id="2lmS-5YsYihyagzqlJ5x-23" value="" style="rounded=0;whiteSpace=wrap;html=1;strokeColor=#61D5FF;fillColor=#61D5FF;" vertex="1" parent="1">
          <mxGeometry x="-1330" y="750" width="120" height="120" as="geometry" />
        </mxCell>
        <mxCell id="1rtqqvMdxupV1CVTJnT_-19" style="edgeStyle=none;rounded=0;orthogonalLoop=1;jettySize=auto;html=1;entryX=0.5;entryY=0;entryDx=0;entryDy=0;entryPerimeter=0;shadow=0;strokeColor=default;strokeWidth=2;align=center;verticalAlign=middle;fontFamily=Helvetica;fontSize=11;fontColor=default;labelBackgroundColor=default;startArrow=classic;endArrow=classic;fillColor=#515151;" parent="1" edge="1">
          <mxGeometry relative="1" as="geometry">
            <mxPoint x="-643" y="827" as="sourcePoint" />
            <mxPoint x="-643" y="827" as="targetPoint" />
          </mxGeometry>
        </mxCell>
        <mxCell id="1rtqqvMdxupV1CVTJnT_-20" value="" style="endArrow=classic;startArrow=classic;html=1;rounded=0;shadow=0;strokeColor=default;strokeWidth=2;align=center;verticalAlign=middle;fontFamily=Helvetica;fontSize=11;fontColor=default;labelBackgroundColor=default;fillColor=#515151;exitX=0;exitY=0.5;exitDx=0;exitDy=0;entryX=1;entryY=0.5;entryDx=0;entryDy=0;" parent="1" source="2lmS-5YsYihyagzqlJ5x-16" target="2lmS-5YsYihyagzqlJ5x-17" edge="1">
          <mxGeometry width="50" height="50" relative="1" as="geometry">
            <mxPoint x="-1291" y="729" as="sourcePoint" />
            <mxPoint x="-1380" y="429" as="targetPoint" />
            <Array as="points" />
          </mxGeometry>
        </mxCell>
        <mxCell id="1rtqqvMdxupV1CVTJnT_-27" value="&lt;div&gt;&lt;b&gt;&lt;font style=&quot;font-size: 36px;&quot;&gt;MNRT WILDLIFE AND FOREST CRIME OPERATION CENTER MODEL&lt;br&gt;&lt;/font&gt;&lt;/b&gt;&lt;/div&gt;&lt;div&gt;&lt;/div&gt;" style="text;html=1;align=center;verticalAlign=middle;whiteSpace=wrap;rounded=0;fontFamily=Helvetica;fontSize=11;fontColor=default;labelBackgroundColor=default;" parent="1" vertex="1">
          <mxGeometry x="-1535" y="50" width="1270" height="60" as="geometry" />
        </mxCell>
        <mxCell id="4XTPGP9FqWyqA6gIsmBm-3" value="&lt;font style=&quot;font-size: 18px;&quot;&gt;&lt;b&gt;TCGs Operation Control Center&lt;br&gt;&lt;/b&gt;&lt;/font&gt;" style="text;html=1;align=center;verticalAlign=middle;whiteSpace=wrap;rounded=0;" parent="1" vertex="1">
          <mxGeometry x="-1371" y="714" width="207" height="30" as="geometry" />
        </mxCell>
        <mxCell id="2lmS-5YsYihyagzqlJ5x-4" value="" style="shape=image;imageAspect=0;aspect=fixed;verticalLabelPosition=bottom;verticalAlign=top;image=data:image/jpeg,/9j/4AAQSkZJRgABAQAAAQABAAD/2wBDAAgGBgcGBQgHBwcJCQgKDBQNDAsLDBkSEw8UHRofHh0aHBwgJC4nICIsIxwcKDcpLDAxNDQ0Hyc5PTgyPC4zNDL/2wBDAQkJCQwLDBgNDRgyIRwhMjIyMjIyMjIyMjIyMjIyMjIyMjIyMjIyMjIyMjIyMjIyMjIyMjIyMjIyMjIyMjIyMjL/wgARCADIAMgDASIAAhEBAxEB/8QAGgABAQADAQEAAAAAAAAAAAAAAAUCBAYDAf/EABQBAQAAAAAAAAAAAAAAAAAAAAD/2gAMAwEAAhADEAAAAr4AAAAAAAAAAAAACXmUU4UU4UUTIspwopwop2uWUTaKKcKKcKKXUAAJ1GdRAAJ+OWJSAAmU5hnQn0AACdRnUQACV6fPoABp5fcz2AA1drxPHc1tkAA86s2kAATqM6iE/mTtnJ9UaOOWJSAAmU5hnQn7xk5PVO2T6BOozqIAacQp7EHA+TquuaXTxepJ/wBp/TXe3MnQOMonRaVPIlfafmcS3R69DBwLNTlczp2mPLke94M+A3dLP3NWnMG55Vdc0fGv5E1WwNL7QwNf22oYNoz0s8AfTrW+HIPQmgbulumltatQ0Pf3Gfl91zYa43NX2+mj67P0l7ulumkBvaNI6tyAs/LOJwT78G7pZmG9lPKWzE2y4sCOsCPp9JxZ7+eiG7npGAHTc13hJWABKldUOH3qnuc7vQ+qOc3Zd86AADlOr58j1YfVEP3ldgctvVKxKqgABq6el0ZzXr8tnJX5144fqpPTHqABKq+RwvVyOkOTp+V8gb+p0Jq7XOdGAAAAAAAAAAAAAAAAAAAAAAAAAAAf/9oADAMBAAIAAwAAACHzzzzzzzzzzzzzzjDDDDDDDDDzzxTzyjzzzzzxTzwgADgABCgABzzxTDSjzzzjDRTzhSgiTDDSAhxDyQAgBywDxgAATAgBQQjiCgxQAAyggBBDzzgAgAjzxyhQzzyhwDxzzwSwxTzzwQyxTzzzzzzzzzzzzzzzzzzzzzzzzzzz/9oADAMBAAIAAwAAABDzzzzzzzzzzzzzzzzzDzzjTzzzzzzzwDzzxTzzzzzTzyjzyjzzzTzzzzADzzxTTzzzDCxwjDDBgxjDCgDABiQjBBSgDxQAAADgCgAABTCwASjTzzjDQATzyzjADzyxjCzzzySQhjzzggyTTzzzzzzzzzzzzzzzzzzzzzzzzzzz/8QAFBEBAAAAAAAAAAAAAAAAAAAAcP/aAAgBAgEBPwAp/8QAFBEBAAAAAAAAAAAAAAAAAAAAcP/aAAgBAwEBPwAp/8QAQxAAAAQEAAgJCgUEAwEAAAAAAQIDBAAFERITFBUgITFRkxAiMjVBVFWSsRYjUlNxgYKDkdEGM2FiwSQ0NmByofBz/9oACAEBAAE/Av8ATZiUy0xZoYVRMp764M1OiMkF6683sZIL115vYyQXrrzexkgvXXm9jJBeuvN7ExY4oxUXI7diYtOUp+sEbi9mTspnLggJ2UAh6awjJBeuvN7GSC9deb2MkF6683sZIL115vYyQXrrzewduLKZNClcuDgpfUDnrqCJcxxtimud27Axq8lT9YyQXrrzexkgvXXm9jJBeuvN7GSC9deb2MkF6683sS4pkpg9QwqihSWUvNXozXfPMv8Aj8M6d80LfD4hDDnSYfL8M5/zow+Z4RJOaEfi8RzmnPMw+DwzXfPMv+Pwzp3zQt8PiEMOdJh8vwzn/OjD5nhEk5oR+LxHOac8zD4PDNmSxW8zYrHrYW+tA/SMuMtp+4MZcZbT9wYy4y2n7gxlxltP3BjLjLafuDEzmjZzL1EU77zUpxf1hN6kymb3DXceylAr0RlxltP3BjLjLafuDGXGW0/cGMuMtp+4MZcZbT9wYUepPZmzwN3EvrUKdESyaNm0vTRUvA5a14v6xlxltP3BjLjLafuDGXGW0/cGMuMtp+4MZcZbT9wYlqxXEyfLErYaylQ/TNmBlxfNG6K4pYS6ogFdUYg97TPuwjEHvaZ92EYg97TPuwjEHvaZ92EYg97TPuwh8k+Zszr5ROa2miwNsBjbuYOkyPDJFTtoAFrrCMQe9pn3YRiD3tM+7CMQe9pn3YRiD3tM+7CMQe9pn3YQONtJg2TO8MqVS6oCWmoIYpPnjMi+UTlurosDbGIPe0z7sIxB72mfdhGIPe0z7sIxB72mfdhGIPe0z7sIl5lweu0FlxVwdtBEKa813zzL/j8M6d80LfD4hDDnSYfL8M5/zow+Z4RJOaEfi8RzmnPMw+DwzXfPMv8Aj8OCazMGCYAULljag2QpMHaprjOFPcNIZTpy3OAKmFVPpA2uE1CqplUINSmCoRO+aFvh8QhhzpMPl+Gc/wCdGHzPCJJzQj8XiMKKFSTMocaFKFRh7OnLg44I4pJ9AF1wlMHaJriuFPeNYlUyB+kIGCixeUG3gac8zD4PDNmCpEZqwUUNaQL6iPsjKrHrJInphGbKAPQAAH04ZO6TQlJBXUAhbxKWsTZ+1Xlqqaa5THGlAD2w3dINpo+wygEuspX2RlVj1kkZVY9ZJGVWPWSRlVj1kkZVY9ZJDh0g5mjHAqAe2+tPZEpftUZYkmouUpwrUB9sTh0mvKTCgoBy3gU1OGRGEJqmAdICA/SMqseskiXqkWmr9RM1xRsoIezhmT7EGuEtuMI0KEeUbv1aH0H7wefLqctu2NTaQfvGWT9UZ7uFKzlMypUwK6TpUAHQYIyS99UG8L94CUPBH8sofMLDZmiizTQEpTgXaHTGKt/UJdwIM3RMNTJEEdolgyDUhRMZFIChpEbQidnbndkFsKYls02cEmMgR6IuBJZYPLgqDU5QMVFISjpAbQgrdEo1KkQB2gWMVb+oS7gQ5ZpLM1EAKVMDdIB0wMoeAP5ZR+YWMkvfVBvC/eCVkyZVTJgZ0pWgCOgpYyyfqjPdwSfLp8hu2LXYQfvHlG79Wh9B+8S19j7XCW2mAaCETtHCytTaTjZks4zkyA6lkzE4ZS7EigtTqGKktoAQHkjthdd83XOkdytcUafmDGPO+tLbwYM8dGKJTOVhAdYCccwrx0UoFK5WAA1ABxjHnfWlt4MILvnC5EiOVrjDT8wYmzsVFAakUMZJHRUR5Q7eGZ8V0VENSJCp5kkRwUrT2n40KEBVI6Y6jBSDFEhxKOsBpwoqCiuRQNZTAMTFMEpgsAckRuD2Dp4QOi+YA5Uai4cJUIcAOIDTbHmOxlt4b7Rgk77ciq1pX84Yua4EFslGwYjS7DjFiOGwOR1MJStuGGLmuBw2SjYMBpdhxjBJ32ZFVrSv5wx5jsZbeG+0CdFiwFym1Fu4VqQgCcRGm3hlyYKTBEB5IDcPsDTCygrLHUHWYwjwlKJzgUNYjSEyAkkRMNRQpCihEUxUUMBShrEYm6eDmStOSfjh78x75xqzX2kwY/DwNGgu017OWmW4A2wi4WbGEyKgkEdkZVfdZPEumDpd4RBU4qpqcUxRhdpYGCTauREqg1NQaCEYH+qvxJ5grdWmtYbtLwwSjVyAmUChqDQAiYzF0i8OgkcUk0+KUoRlV91k8LOFnJgMsoJxDbDtoLRNC/lqFuENnAy821eL7CYMPizJQmCkyTEeSTjj7oTUIsmB0zAYo6hCJhMTv1NIiVMOSSH/AJ6XsnH7cEb3ZiXnZSuTpSOCge/RwSZQyJXiheUVGoRlRI2k7FuJukbIym37Pb9yBm1pRBu3SQMOi8hNMY+662v3hjH3XW1+8MY+662v3hgJtcUAcN0lzBovOTTGU2/Z7fuRlRIukjFuBugbInChlis1DcoyNR4FfNSlAnSqcVB92gMxh5mXPXG0uCD3xL5idgpoETJjyiR5OM/WL/UPtD6WJt5KqmkJzWmwnGzJZxnJkR1LEMTglzhBDDlcX2Kkt4kWyb03n/UNJfKnprUl3F/omp9o8nGfrF/qH2jycZ+sX+ofaPJxn6xf6h9o8nGfrF/qH2jycZ+sX+ofaHcvlTI1qq7i/wBEtPtFsm9N5/1ExcIL4Are+xIlvH4JpxXQIhqRIVPMYyxNxJUk1ROW42E4seTjP1i/1D7cChAVSOmOowUgxRIcSjrAacKKgorEUDWUwDDxleosu3OmqlUTUKbSUPZwyy7Kbe3XfnTO7Kbi7Xfws2diiLhydNJKoHoY2kweyFlBWWOoOsxhHhIUTnKQNYjQITICSRUw1FCmY/kaTtQVUz4NQdewYU/D7wnJwZ/YMEZOVFxQBI2EDWGyMguCkFRZRNMhQqI64Fds2SOm1uOc4WmVNo0foESBki4SWUWTKfSABWHlmOrYMAAgHEAAIkCd8zA3oFEf4/nOn6dkzE3plAf4hnZjqOEABIJwAQGJ+yRbponRTKTSIDSAXbOkiJurkzkC0qpQro/UIyC4MQqiKiahDBUB1Qdk5I4BAUjYQdQbYT/D7w/KwZPaMMJGk0UBVQ+EUDVsDPbf5G8/4B/ETpTBypX91C8EmDF5LhR/cf8A99IEajWPw0n/AHCnsLnfiVPS3U9pYAaDUInIYxJsKH7T/wDvrwSVTCSpL9tSw5/yRn/8x8Bz3MxaNRoqqF3ohpGMrOHH9kyOb959AQiMyCbODEKkZxaF5eimiHzzGUAQfILNuNW4oVCDsPNGVQXTWIUKjTQIe6HX9L+HbenBAX68H4fTslt3pnEf4zvxAnfLbvQOA/xwNv6r8O29OCEv0gjDzRVV100SGCoV0iPuhi8xdAUGKCznTW4wUCFhmRpu3MYqRXFo2F6KaYys4b/3rI5f3k0hDaYtHQ0SVC70R0Dms27w07FRwjXSN5jF0e7gZJzAJ4ZRQhtIjeamikLpGUwdqltDcYOgwbIaNHYTg4GQokYRA/F4olh42B20OgI0u6dkBIHuFtoS307obIFbNiIl1FCmc5QK5bHRNqMEDIHuFtoS307tENGxWjQiAabQ17YdNXQzggFQqkUQAnF4oFhBI6d9yl1TcUOgobIeJvxnpVEyGoAhYaminA8bvCzwFEEKaQtMUuj3/wCnf//EACkQAQABAgMIAwEBAQEAAAAAAAERACExUfAQIEFhobHB0XGBkfFg4TD/2gAIAQEAAT8h/wAaYjcsi0ita9VrXqta9VrXqta9UtswEpcGXOsKUS3E7VrXqta9VrXqta9VrXqsKUS3B70t8yFmyMuVa16rWvVa16rWvVa16p2G5Zl0u70+/wBWo597Xcu/V0+79Pv9Wo597Xcu/V0+72sRJJjDeMMMMMZVWBZgGmqAxLgv77xhhhhjXIYtxW9qR2wA3FPneMMMMMtUiSDBG6eDMUwJrTnmtOea055rTnmtOeaFeRpMg80bAfhoRWnPNac81pzzWnPNac80bCfhoTSjzNohHitOea055rTnmtOea055o+mY5gTu9Pv9Wo597Xcu/V0+79PswZYmwGbT+WyUH0VxWPEj4agoImZsq1HPva7l2VTcETlQtxOIXy0NlslD9NCiwpgMzZ0+7lyDlFP6NYGnxSD3XaJYIfv3XPtZFtfqnJH/AHvO7u/4pyTXk6oi9pTwQ/frbgefFJPcK/p0WIecbVq3PMJ5/mzpB5WmRT+991ZuhE5+7ZNggIIFxbHWhEfiTKxdhCdvxAtGe2REFQCDLMTLlsOlyCJkzoz2wIkoOX4AHYQci8ABwNJAgOJc67BFuqU1nrN1r+991J52iTsdL1tPYTy/amgSofrHou4zuhKSdQpEYcdhrEtZ4Yyo8+U7uNac80CBoRCfu4KBoBAftac80+fCcHnjRiEnMeOs9gKwXWmdxMCXqu5NEhV/eHQKxwe/hKMeHI5m3BGT9NesMo77ZMIFLgsx/tA2CqX1pkOD+VljGxXLCuvVcZ4Vf4sbEcsKtrjAcH8pCw1SKiBS4rsP5t9yLx2rEOT9u015MPlrDB5+AoxBzwFG7hVzhPedzmlflUdk2LckJOa5RgIhViV/XqzScZtGNNAJJA64EfFR5TeajCkgFkI9JkjKaTk8DFs6/r0YCIFYFXZEmc1jZzaPyr0O5x3VcoT3ijGHPEVdHVgsc292oj3RJ0edz0Vy542KfCmiblLpuvYy/taF7qDjZYDyZrR3mtHea0d5qDjYYDzZrQvdDouzMP7TjyJoi67PR3P+rcinZBerxV1dXCzzL2dlYFIRmMODgHCdxndTUk6hSIw2Sjoy5gWv4XrTQgEyBTeVq1atWKMImRIU/hetX7LmAaBUC60hN1YEvVdwFIjmCuBiPCNtbHB7+Eo14cvk24JyfppJfhE4y+LaVPiD849J3iJcyfnDpG1Y5ghEvbFWIen7dosyb5GsMVn4DcQ5e2ynipZQff1KskxOcXFyxofrkpQHIKmc+XAWJzOdADSLzFpe5VpwUEgY35tLDaV2q04KCQsUBdYvE2t2aiEvFicDlZlJxclKR5JV1Gozg4meFQygfn6FIcvbYTzv6vlXEN4H2+p2BmEv1aiIrqy1eUyuq+N60Tg3RPNISQjJQZJD922OYZH0+o/8Cqos/wAAwrBmuH8TrQsAjYoQDpUw4ATNh6X4Vxk2ULNVXeGT+YD3dkDDQu29hPQu+y1xIXzIOxXGX5QswUzOLUTbdLcWlBFgwQkPWsOeY6TrQpt/wHHddiMg8Wl+RGwHMI1/hh+iKXTAmGeJVcBXVsy4ZVDqi2YXKXKUuBH5j0pV5ujxzd514hTlk0OFpcDox6U4sbmY3a4/uvJnwzpVsWYI4EU0mIVvjl+2diohlXi8v2Z/x3//xAAoEAEAAQMCBAcBAQEAAAAAAAABEQAhMUFRECBhcYGRobHB8PHRMGD/2gAIAQEAAT8Q/wCNkGQC8Vy5k1HLX5Kv5Kv5Kv5Kv5KrizvxkZAOFrV0UwsjIRMjEZa/JV/JV/JV/JV/JVEs0iyEAAzK84Kxix4YGBTga1+Sr+Sr+Sr+Sr+SrMkgM8wsZdAwf5pev51p6Wp6vmX2O7/NL1/OtPS1PV8y+x3csMOXpkAsdUr6d8V9O+K+nfFfTvivp3xSe8icy102GnpvlOTaMYV9O+K+nfFfTvivp3xX074prTJIzrM5U+uInENcNhX074r6d8V9O+K+nfFfTviiVcrDZCz1Hl0EbFiLPZM681SpUqVGAaub0MsasaVbhCHbrlIunXPNUqVKlQ5QxHLphZuHTFMg8Dchkmbsa81SpUqVNU+wYqx3DOn+aXr+daelqer5l9ju50guSuOMkXibBqzs1NimfDtAHlS6yhEbd7z0VO2aJWU+oSV6/nWnpanq6Qn2n0BLQ7CpGbc7z0EO+aghTL37SD5UMzTVjE2k2TR7nD7Hdy6KXJSIT4oeNCoEz1fyl1Y9dMBxC4IyYdp4tFrDJMwV02Fret3cyY7Q86/Yf5X7D/K/Yf5X7D/K/Yf5TVDr9xInvD5U+ZZJmQtNkfGn0HkwbXxOJ+Uj3UXFBFRsdX8rSE8KDGPETiIDIYiQWUaAu9u9XaO83Ja9ZibMHBiBUJMyoDMIy3E6RVorsBjOphsdiphKYqxRmcq+Fq+4fFQN4kZBBKm1KwCCCJVYsBRYAgBv+ExHpwc4yErG7JiaFgFEUSIxcSpG8QMkhhDavuHxUtgMNUKxEwh4WoLsgRHUSWO5wtRTACkIKzDZsD1mmLzchp1iYuy1do4wZxyYAZWyDtfvXqQL0LkjKBIXBNe/rqRAgYR0eDq4MWbMHJs72mxSluYR2GxITo8JSojNJWRGCO3IAAxCRAAQANOEoX9cBuWwJXoUZuDsmzF1SHjFngDJRAGVpghCJhkvJPEoTyhVPXpPA+9dL8RJD6nGZeEjVBj0qAFl5hEg6RDw4CiIwmtGUa7jLZb9bTbQUKQVgpJrOdBiy826lIs6tZbHXZ8q+VHuLNNS+qaynXcqczxos3Xm3RpUAjDSwoCedbJZpab6GlllzwhTvFwCydIh41KfdLRR+eMV4nukHq0FMdhQHtUtNxQD+9NahjWEwASchal4I6QvV8rwEC5iQIdyLnUDWrZLurkw+VfgP5TjMR11SEJIL9hq3P4QmJWKZd968gCys+0oZH0ADTXJk7bUKmA4RCEpLJftFfgP5V8l3VyYPOo6JNEMO5AL1U04XBZC7VTqed5IRSZMBA0SR3FIPumlSaZQ71DzGmkVJtfgvLz6pLk3ZvxF5Yz4ATYAQSRhzT9PwRumJV+MoSUcUBaYHJZs2SCrilDTIr8ZQ+t5UbJiFyiJkAJSFgxw26TahEnRZnIFFNolV49iVPGZQx1DzGus8As6XpQohYBe5GKBKuCS96yMlEI5GnXYMJluk2Ld+Gru+xDwwfB5goUKFChdBI8wuB4s8NU6SJSYbLFm3aibUQBq0IxKJhCvfkk6d5ATKyC9xChTPc0D71FeJ7JD6nGY+yWqD8VIHNMLJaAE5JtxKEk1NuPjBzASSYvl+EHEzIIaKCUoYyxapSrpaKPzxghEt0g9WgljtKA9uRZNwd/JIp1R8JqCjikojsF6YnnQKYRsrGXel0yY7SuRYxNRq/L1kakLKpzGasySCMUHf0KgCopAYIOxNS4SeJocxjwTe8DTOXZGURT5z4VZukGaGXb1KhNOVrARYWEnfFDQkx2kWws4mryepVMp2VzJtUNHCyo8EvS6Tg7+CVRor4T/AIPrdgXUQz6OCDEEa7S9gpHZZHValxQT9GnNhzRHt8ijXBkNExUXBGUvaHsXCWrJdBLH+AFF+pJoySDJhe8U/b+LD7NN5bIHSCS4b97tOF6VLC4xNyycUVn4nnQgxCUxNbAAN/kJwnWCU7hHufNKC5p2GfceEsaK2oIFmwnnUg1SRzFG62umCwTFiwXaSmiwmkEt036lyj6exZY9dC/Vg1YJQgsNp5VutgW4EhE2GSDaawQVGR8UYgQQ7Jm3em5LASVoiXMOnSZpi4ThOrIJDEIvJfWoogxEyhI2kLbTWCpmRHc9mjKDwULz4ir48yOH4yV56kIPhWCpiBDd9mkyUBiJSkbKttqeqEYxqyRgTKby20onQ1ElaAFjLr1iaXqtJeQIIN0zd6UgkJJQzmhBZCAibjJDtH/Hf//Z;" vertex="1" parent="1">
          <mxGeometry x="-1324" y="757" width="110" height="110" as="geometry" />
        </mxCell>
        <mxCell id="2lmS-5YsYihyagzqlJ5x-6" value="&lt;h1 align=&quot;center&quot; style=&quot;margin-top: 0px;&quot;&gt;ECOLOGY&lt;/h1&gt;&lt;p align=&quot;center&quot;&gt;&lt;b&gt;(IoTs, Drones, GPRS)&lt;/b&gt;&lt;br&gt;&lt;/p&gt;" style="text;html=1;whiteSpace=wrap;overflow=hidden;rounded=0; align=center;align=right;" vertex="1" parent="1">
          <mxGeometry x="-1351" y="1114" width="131" height="83" as="geometry" />
        </mxCell>
        <mxCell id="2lmS-5YsYihyagzqlJ5x-9" value="" style="endArrow=classic;html=1;rounded=0;shadow=0;strokeColor=default;strokeWidth=2;align=center;verticalAlign=middle;fontFamily=Helvetica;fontSize=11;fontColor=default;labelBackgroundColor=default;fillColor=#515151;exitX=-0.008;exitY=0.588;exitDx=0;exitDy=0;entryX=0.5;entryY=1;entryDx=0;entryDy=0;exitPerimeter=0;" edge="1" parent="1" target="2lmS-5YsYihyagzqlJ5x-4">
          <mxGeometry width="50" height="50" relative="1" as="geometry">
            <mxPoint x="-1269" y="1114" as="sourcePoint" />
            <mxPoint x="-1261" y="867" as="targetPoint" />
          </mxGeometry>
        </mxCell>
        <mxCell id="2lmS-5YsYihyagzqlJ5x-10" value="" style="shape=image;imageAspect=0;aspect=fixed;verticalLabelPosition=bottom;verticalAlign=top;image=data:image/jpeg,/9j/4AAQSkZJRgABAQAAAQABAAD/2wBDAAgGBgcGBQgHBwcJCQgKDBQNDAsLDBkSEw8UHRofHh0aHBwgJC4nICIsIxwcKDcpLDAxNDQ0Hyc5PTgyPC4zNDL/2wBDAQkJCQwLDBgNDRgyIRwhMjIyMjIyMjIyMjIyMjIyMjIyMjIyMjIyMjIyMjIyMjIyMjIyMjIyMjIyMjIyMjIyMjL/wgARCADIAMgDASIAAhEBAxEB/8QAGgABAQADAQEAAAAAAAAAAAAAAAUCBAYDAf/EABQBAQAAAAAAAAAAAAAAAAAAAAD/2gAMAwEAAhADEAAAAr4AAAAAAAAAAAAACXmUU4UU4UUTIspwopwop2uWUTaKKcKKcKKXUAAJ1GdRAAJ+OWJSAAmU5hnQn0AACdRnUQACV6fPoABp5fcz2AA1drxPHc1tkAA86s2kAATqM6iE/mTtnJ9UaOOWJSAAmU5hnQn7xk5PVO2T6BOozqIAacQp7EHA+TquuaXTxepJ/wBp/TXe3MnQOMonRaVPIlfafmcS3R69DBwLNTlczp2mPLke94M+A3dLP3NWnMG55Vdc0fGv5E1WwNL7QwNf22oYNoz0s8AfTrW+HIPQmgbulumltatQ0Pf3Gfl91zYa43NX2+mj67P0l7ulumkBvaNI6tyAs/LOJwT78G7pZmG9lPKWzE2y4sCOsCPp9JxZ7+eiG7npGAHTc13hJWABKldUOH3qnuc7vQ+qOc3Zd86AADlOr58j1YfVEP3ldgctvVKxKqgABq6el0ZzXr8tnJX5144fqpPTHqABKq+RwvVyOkOTp+V8gb+p0Jq7XOdGAAAAAAAAAAAAAAAAAAAAAAAAAAAf/9oADAMBAAIAAwAAACHzzzzzzzzzzzzzzjDDDDDDDDDzzxTzyjzzzzzxTzwgADgABCgABzzxTDSjzzzjDRTzhSgiTDDSAhxDyQAgBywDxgAATAgBQQjiCgxQAAyggBBDzzgAgAjzxyhQzzyhwDxzzwSwxTzzwQyxTzzzzzzzzzzzzzzzzzzzzzzzzzzz/9oADAMBAAIAAwAAABDzzzzzzzzzzzzzzzzzDzzjTzzzzzzzwDzzxTzzzzzTzyjzyjzzzTzzzzADzzxTTzzzDCxwjDDBgxjDCgDABiQjBBSgDxQAAADgCgAABTCwASjTzzjDQATzyzjADzyxjCzzzySQhjzzggyTTzzzzzzzzzzzzzzzzzzzzzzzzzzz/8QAFBEBAAAAAAAAAAAAAAAAAAAAcP/aAAgBAgEBPwAp/8QAFBEBAAAAAAAAAAAAAAAAAAAAcP/aAAgBAwEBPwAp/8QAQxAAAAQEAAgJCgUEAwEAAAAAAQIDBAAFERITFBUgITFRkxAiMjVBVFWSsRYjUlNxgYKDkdEGM2FiwSQ0NmByofBz/9oACAEBAAE/Av8ATZiUy0xZoYVRMp764M1OiMkF6683sZIL115vYyQXrrzexkgvXXm9jJBeuvN7ExY4oxUXI7diYtOUp+sEbi9mTspnLggJ2UAh6awjJBeuvN7GSC9deb2MkF6683sZIL115vYyQXrrzewduLKZNClcuDgpfUDnrqCJcxxtimud27Axq8lT9YyQXrrzexkgvXXm9jJBeuvN7GSC9deb2MkF6683sS4pkpg9QwqihSWUvNXozXfPMv8Aj8M6d80LfD4hDDnSYfL8M5/zow+Z4RJOaEfi8RzmnPMw+DwzXfPMv+Pwzp3zQt8PiEMOdJh8vwzn/OjD5nhEk5oR+LxHOac8zD4PDNmSxW8zYrHrYW+tA/SMuMtp+4MZcZbT9wYy4y2n7gxlxltP3BjLjLafuDEzmjZzL1EU77zUpxf1hN6kymb3DXceylAr0RlxltP3BjLjLafuDGXGW0/cGMuMtp+4MZcZbT9wYUepPZmzwN3EvrUKdESyaNm0vTRUvA5a14v6xlxltP3BjLjLafuDGXGW0/cGMuMtp+4MZcZbT9wYlqxXEyfLErYaylQ/TNmBlxfNG6K4pYS6ogFdUYg97TPuwjEHvaZ92EYg97TPuwjEHvaZ92EYg97TPuwh8k+Zszr5ROa2miwNsBjbuYOkyPDJFTtoAFrrCMQe9pn3YRiD3tM+7CMQe9pn3YRiD3tM+7CMQe9pn3YQONtJg2TO8MqVS6oCWmoIYpPnjMi+UTlurosDbGIPe0z7sIxB72mfdhGIPe0z7sIxB72mfdhGIPe0z7sIl5lweu0FlxVwdtBEKa813zzL/j8M6d80LfD4hDDnSYfL8M5/zow+Z4RJOaEfi8RzmnPMw+DwzXfPMv8Aj8OCazMGCYAULljag2QpMHaprjOFPcNIZTpy3OAKmFVPpA2uE1CqplUINSmCoRO+aFvh8QhhzpMPl+Gc/wCdGHzPCJJzQj8XiMKKFSTMocaFKFRh7OnLg44I4pJ9AF1wlMHaJriuFPeNYlUyB+kIGCixeUG3gac8zD4PDNmCpEZqwUUNaQL6iPsjKrHrJInphGbKAPQAAH04ZO6TQlJBXUAhbxKWsTZ+1Xlqqaa5THGlAD2w3dINpo+wygEuspX2RlVj1kkZVY9ZJGVWPWSRlVj1kkZVY9ZJDh0g5mjHAqAe2+tPZEpftUZYkmouUpwrUB9sTh0mvKTCgoBy3gU1OGRGEJqmAdICA/SMqseskiXqkWmr9RM1xRsoIezhmT7EGuEtuMI0KEeUbv1aH0H7wefLqctu2NTaQfvGWT9UZ7uFKzlMypUwK6TpUAHQYIyS99UG8L94CUPBH8sofMLDZmiizTQEpTgXaHTGKt/UJdwIM3RMNTJEEdolgyDUhRMZFIChpEbQidnbndkFsKYls02cEmMgR6IuBJZYPLgqDU5QMVFISjpAbQgrdEo1KkQB2gWMVb+oS7gQ5ZpLM1EAKVMDdIB0wMoeAP5ZR+YWMkvfVBvC/eCVkyZVTJgZ0pWgCOgpYyyfqjPdwSfLp8hu2LXYQfvHlG79Wh9B+8S19j7XCW2mAaCETtHCytTaTjZks4zkyA6lkzE4ZS7EigtTqGKktoAQHkjthdd83XOkdytcUafmDGPO+tLbwYM8dGKJTOVhAdYCccwrx0UoFK5WAA1ABxjHnfWlt4MILvnC5EiOVrjDT8wYmzsVFAakUMZJHRUR5Q7eGZ8V0VENSJCp5kkRwUrT2n40KEBVI6Y6jBSDFEhxKOsBpwoqCiuRQNZTAMTFMEpgsAckRuD2Dp4QOi+YA5Uai4cJUIcAOIDTbHmOxlt4b7Rgk77ciq1pX84Yua4EFslGwYjS7DjFiOGwOR1MJStuGGLmuBw2SjYMBpdhxjBJ32ZFVrSv5wx5jsZbeG+0CdFiwFym1Fu4VqQgCcRGm3hlyYKTBEB5IDcPsDTCygrLHUHWYwjwlKJzgUNYjSEyAkkRMNRQpCihEUxUUMBShrEYm6eDmStOSfjh78x75xqzX2kwY/DwNGgu017OWmW4A2wi4WbGEyKgkEdkZVfdZPEumDpd4RBU4qpqcUxRhdpYGCTauREqg1NQaCEYH+qvxJ5grdWmtYbtLwwSjVyAmUChqDQAiYzF0i8OgkcUk0+KUoRlV91k8LOFnJgMsoJxDbDtoLRNC/lqFuENnAy821eL7CYMPizJQmCkyTEeSTjj7oTUIsmB0zAYo6hCJhMTv1NIiVMOSSH/AJ6XsnH7cEb3ZiXnZSuTpSOCge/RwSZQyJXiheUVGoRlRI2k7FuJukbIym37Pb9yBm1pRBu3SQMOi8hNMY+662v3hjH3XW1+8MY+662v3hgJtcUAcN0lzBovOTTGU2/Z7fuRlRIukjFuBugbInChlis1DcoyNR4FfNSlAnSqcVB92gMxh5mXPXG0uCD3xL5idgpoETJjyiR5OM/WL/UPtD6WJt5KqmkJzWmwnGzJZxnJkR1LEMTglzhBDDlcX2Kkt4kWyb03n/UNJfKnprUl3F/omp9o8nGfrF/qH2jycZ+sX+ofaPJxn6xf6h9o8nGfrF/qH2jycZ+sX+ofaHcvlTI1qq7i/wBEtPtFsm9N5/1ExcIL4Are+xIlvH4JpxXQIhqRIVPMYyxNxJUk1ROW42E4seTjP1i/1D7cChAVSOmOowUgxRIcSjrAacKKgorEUDWUwDDxleosu3OmqlUTUKbSUPZwyy7Kbe3XfnTO7Kbi7Xfws2diiLhydNJKoHoY2kweyFlBWWOoOsxhHhIUTnKQNYjQITICSRUw1FCmY/kaTtQVUz4NQdewYU/D7wnJwZ/YMEZOVFxQBI2EDWGyMguCkFRZRNMhQqI64Fds2SOm1uOc4WmVNo0foESBki4SWUWTKfSABWHlmOrYMAAgHEAAIkCd8zA3oFEf4/nOn6dkzE3plAf4hnZjqOEABIJwAQGJ+yRbponRTKTSIDSAXbOkiJurkzkC0qpQro/UIyC4MQqiKiahDBUB1Qdk5I4BAUjYQdQbYT/D7w/KwZPaMMJGk0UBVQ+EUDVsDPbf5G8/4B/ETpTBypX91C8EmDF5LhR/cf8A99IEajWPw0n/AHCnsLnfiVPS3U9pYAaDUInIYxJsKH7T/wDvrwSVTCSpL9tSw5/yRn/8x8Bz3MxaNRoqqF3ohpGMrOHH9kyOb959AQiMyCbODEKkZxaF5eimiHzzGUAQfILNuNW4oVCDsPNGVQXTWIUKjTQIe6HX9L+HbenBAX68H4fTslt3pnEf4zvxAnfLbvQOA/xwNv6r8O29OCEv0gjDzRVV100SGCoV0iPuhi8xdAUGKCznTW4wUCFhmRpu3MYqRXFo2F6KaYys4b/3rI5f3k0hDaYtHQ0SVC70R0Dms27w07FRwjXSN5jF0e7gZJzAJ4ZRQhtIjeamikLpGUwdqltDcYOgwbIaNHYTg4GQokYRA/F4olh42B20OgI0u6dkBIHuFtoS307obIFbNiIl1FCmc5QK5bHRNqMEDIHuFtoS307tENGxWjQiAabQ17YdNXQzggFQqkUQAnF4oFhBI6d9yl1TcUOgobIeJvxnpVEyGoAhYaminA8bvCzwFEEKaQtMUuj3/wCnf//EACkQAQABAgMIAwEBAQEAAAAAAAERACExUfAQIEFhobHB0XGBkfFg4TD/2gAIAQEAAT8h/wAaYjcsi0ita9VrXqta9VrXqta9UtswEpcGXOsKUS3E7VrXqta9VrXqta9VrXqsKUS3B70t8yFmyMuVa16rWvVa16rWvVa16p2G5Zl0u70+/wBWo597Xcu/V0+79Pv9Wo597Xcu/V0+72sRJJjDeMMMMMZVWBZgGmqAxLgv77xhhhhjXIYtxW9qR2wA3FPneMMMMMtUiSDBG6eDMUwJrTnmtOea055rTnmtOeaFeRpMg80bAfhoRWnPNac81pzzWnPNac80bCfhoTSjzNohHitOea055rTnmtOea055o+mY5gTu9Pv9Wo597Xcu/V0+79PswZYmwGbT+WyUH0VxWPEj4agoImZsq1HPva7l2VTcETlQtxOIXy0NlslD9NCiwpgMzZ0+7lyDlFP6NYGnxSD3XaJYIfv3XPtZFtfqnJH/AHvO7u/4pyTXk6oi9pTwQ/frbgefFJPcK/p0WIecbVq3PMJ5/mzpB5WmRT+991ZuhE5+7ZNggIIFxbHWhEfiTKxdhCdvxAtGe2REFQCDLMTLlsOlyCJkzoz2wIkoOX4AHYQci8ABwNJAgOJc67BFuqU1nrN1r+991J52iTsdL1tPYTy/amgSofrHou4zuhKSdQpEYcdhrEtZ4Yyo8+U7uNac80CBoRCfu4KBoBAftac80+fCcHnjRiEnMeOs9gKwXWmdxMCXqu5NEhV/eHQKxwe/hKMeHI5m3BGT9NesMo77ZMIFLgsx/tA2CqX1pkOD+VljGxXLCuvVcZ4Vf4sbEcsKtrjAcH8pCw1SKiBS4rsP5t9yLx2rEOT9u015MPlrDB5+AoxBzwFG7hVzhPedzmlflUdk2LckJOa5RgIhViV/XqzScZtGNNAJJA64EfFR5TeajCkgFkI9JkjKaTk8DFs6/r0YCIFYFXZEmc1jZzaPyr0O5x3VcoT3ijGHPEVdHVgsc292oj3RJ0edz0Vy542KfCmiblLpuvYy/taF7qDjZYDyZrR3mtHea0d5qDjYYDzZrQvdDouzMP7TjyJoi67PR3P+rcinZBerxV1dXCzzL2dlYFIRmMODgHCdxndTUk6hSIw2Sjoy5gWv4XrTQgEyBTeVq1atWKMImRIU/hetX7LmAaBUC60hN1YEvVdwFIjmCuBiPCNtbHB7+Eo14cvk24JyfppJfhE4y+LaVPiD849J3iJcyfnDpG1Y5ghEvbFWIen7dosyb5GsMVn4DcQ5e2ynipZQff1KskxOcXFyxofrkpQHIKmc+XAWJzOdADSLzFpe5VpwUEgY35tLDaV2q04KCQsUBdYvE2t2aiEvFicDlZlJxclKR5JV1Gozg4meFQygfn6FIcvbYTzv6vlXEN4H2+p2BmEv1aiIrqy1eUyuq+N60Tg3RPNISQjJQZJD922OYZH0+o/8Cqos/wAAwrBmuH8TrQsAjYoQDpUw4ATNh6X4Vxk2ULNVXeGT+YD3dkDDQu29hPQu+y1xIXzIOxXGX5QswUzOLUTbdLcWlBFgwQkPWsOeY6TrQpt/wHHddiMg8Wl+RGwHMI1/hh+iKXTAmGeJVcBXVsy4ZVDqi2YXKXKUuBH5j0pV5ujxzd514hTlk0OFpcDox6U4sbmY3a4/uvJnwzpVsWYI4EU0mIVvjl+2diohlXi8v2Z/x3//xAAoEAEAAQMCBAcBAQEAAAAAAAABEQAhMUFRECBhcYGRobHB8PHRMGD/2gAIAQEAAT8Q/wCNkGQC8Vy5k1HLX5Kv5Kv5Kv5Kv5KrizvxkZAOFrV0UwsjIRMjEZa/JV/JV/JV/JV/JVEs0iyEAAzK84Kxix4YGBTga1+Sr+Sr+Sr+Sr+SrMkgM8wsZdAwf5pev51p6Wp6vmX2O7/NL1/OtPS1PV8y+x3csMOXpkAsdUr6d8V9O+K+nfFfTvivp3xSe8icy102GnpvlOTaMYV9O+K+nfFfTvivp3xX074prTJIzrM5U+uInENcNhX074r6d8V9O+K+nfFfTviiVcrDZCz1Hl0EbFiLPZM681SpUqVGAaub0MsasaVbhCHbrlIunXPNUqVKlQ5QxHLphZuHTFMg8Dchkmbsa81SpUqVNU+wYqx3DOn+aXr+daelqer5l9ju50guSuOMkXibBqzs1NimfDtAHlS6yhEbd7z0VO2aJWU+oSV6/nWnpanq6Qn2n0BLQ7CpGbc7z0EO+aghTL37SD5UMzTVjE2k2TR7nD7Hdy6KXJSIT4oeNCoEz1fyl1Y9dMBxC4IyYdp4tFrDJMwV02Fret3cyY7Q86/Yf5X7D/K/Yf5X7D/K/Yf5TVDr9xInvD5U+ZZJmQtNkfGn0HkwbXxOJ+Uj3UXFBFRsdX8rSE8KDGPETiIDIYiQWUaAu9u9XaO83Ja9ZibMHBiBUJMyoDMIy3E6RVorsBjOphsdiphKYqxRmcq+Fq+4fFQN4kZBBKm1KwCCCJVYsBRYAgBv+ExHpwc4yErG7JiaFgFEUSIxcSpG8QMkhhDavuHxUtgMNUKxEwh4WoLsgRHUSWO5wtRTACkIKzDZsD1mmLzchp1iYuy1do4wZxyYAZWyDtfvXqQL0LkjKBIXBNe/rqRAgYR0eDq4MWbMHJs72mxSluYR2GxITo8JSojNJWRGCO3IAAxCRAAQANOEoX9cBuWwJXoUZuDsmzF1SHjFngDJRAGVpghCJhkvJPEoTyhVPXpPA+9dL8RJD6nGZeEjVBj0qAFl5hEg6RDw4CiIwmtGUa7jLZb9bTbQUKQVgpJrOdBiy826lIs6tZbHXZ8q+VHuLNNS+qaynXcqczxos3Xm3RpUAjDSwoCedbJZpab6GlllzwhTvFwCydIh41KfdLRR+eMV4nukHq0FMdhQHtUtNxQD+9NahjWEwASchal4I6QvV8rwEC5iQIdyLnUDWrZLurkw+VfgP5TjMR11SEJIL9hq3P4QmJWKZd968gCys+0oZH0ADTXJk7bUKmA4RCEpLJftFfgP5V8l3VyYPOo6JNEMO5AL1U04XBZC7VTqed5IRSZMBA0SR3FIPumlSaZQ71DzGmkVJtfgvLz6pLk3ZvxF5Yz4ATYAQSRhzT9PwRumJV+MoSUcUBaYHJZs2SCrilDTIr8ZQ+t5UbJiFyiJkAJSFgxw26TahEnRZnIFFNolV49iVPGZQx1DzGus8As6XpQohYBe5GKBKuCS96yMlEI5GnXYMJluk2Ld+Gru+xDwwfB5goUKFChdBI8wuB4s8NU6SJSYbLFm3aibUQBq0IxKJhCvfkk6d5ATKyC9xChTPc0D71FeJ7JD6nGY+yWqD8VIHNMLJaAE5JtxKEk1NuPjBzASSYvl+EHEzIIaKCUoYyxapSrpaKPzxghEt0g9WgljtKA9uRZNwd/JIp1R8JqCjikojsF6YnnQKYRsrGXel0yY7SuRYxNRq/L1kakLKpzGasySCMUHf0KgCopAYIOxNS4SeJocxjwTe8DTOXZGURT5z4VZukGaGXb1KhNOVrARYWEnfFDQkx2kWws4mryepVMp2VzJtUNHCyo8EvS6Tg7+CVRor4T/AIPrdgXUQz6OCDEEa7S9gpHZZHValxQT9GnNhzRHt8ijXBkNExUXBGUvaHsXCWrJdBLH+AFF+pJoySDJhe8U/b+LD7NN5bIHSCS4b97tOF6VLC4xNyycUVn4nnQgxCUxNbAAN/kJwnWCU7hHufNKC5p2GfceEsaK2oIFmwnnUg1SRzFG62umCwTFiwXaSmiwmkEt036lyj6exZY9dC/Vg1YJQgsNp5VutgW4EhE2GSDaawQVGR8UYgQQ7Jm3em5LASVoiXMOnSZpi4ThOrIJDEIvJfWoogxEyhI2kLbTWCpmRHc9mjKDwULz4ir48yOH4yV56kIPhWCpiBDd9mkyUBiJSkbKttqeqEYxqyRgTKby20onQ1ElaAFjLr1iaXqtJeQIIN0zd6UgkJJQzmhBZCAibjJDtH/Hf//Z;" vertex="1" parent="1">
          <mxGeometry x="-492" y="756" width="110" height="110" as="geometry" />
        </mxCell>
        <mxCell id="2lmS-5YsYihyagzqlJ5x-11" value="&lt;h1 align=&quot;center&quot; style=&quot;margin-top: 0px;&quot;&gt;PROTECTED AREAS&lt;br&gt;&lt;/h1&gt;&lt;p align=&quot;center&quot;&gt;&lt;b&gt;(IoTs, Drones, GPRS)&lt;/b&gt;&lt;br&gt;&lt;/p&gt;" style="text;html=1;whiteSpace=wrap;overflow=hidden;rounded=0; align=center;align=right;" vertex="1" parent="1">
          <mxGeometry x="-563" y="1117" width="249" height="83" as="geometry" />
        </mxCell>
        <mxCell id="2lmS-5YsYihyagzqlJ5x-12" value="" style="endArrow=classic;html=1;rounded=0;shadow=0;strokeColor=default;strokeWidth=2;align=center;verticalAlign=middle;fontFamily=Helvetica;fontSize=11;fontColor=default;labelBackgroundColor=default;fillColor=#515151;exitX=-0.008;exitY=0.588;exitDx=0;exitDy=0;entryX=0.5;entryY=1;entryDx=0;entryDy=0;exitPerimeter=0;" edge="1" parent="1" target="2lmS-5YsYihyagzqlJ5x-10">
          <mxGeometry width="50" height="50" relative="1" as="geometry">
            <mxPoint x="-440" y="1117" as="sourcePoint" />
            <mxPoint x="-432" y="870" as="targetPoint" />
          </mxGeometry>
        </mxCell>
        <mxCell id="2lmS-5YsYihyagzqlJ5x-15" value="&lt;font style=&quot;font-size: 18px;&quot;&gt;&lt;b&gt;MNRT Institutions Operation Control Centers&lt;br&gt;&lt;/b&gt;&lt;/font&gt;" style="text;html=1;align=center;verticalAlign=middle;whiteSpace=wrap;rounded=0;" vertex="1" parent="1">
          <mxGeometry x="-589" y="714" width="303" height="30" as="geometry" />
        </mxCell>
        <mxCell id="2lmS-5YsYihyagzqlJ5x-16" value="&lt;b&gt;&lt;font style=&quot;font-size: 24px;&quot;&gt;DRS&lt;/font&gt;&lt;/b&gt;" style="rounded=0;whiteSpace=wrap;html=1;strokeColor=#61D5FF;" vertex="1" parent="1">
          <mxGeometry x="-520" y="539" width="120" height="60" as="geometry" />
        </mxCell>
        <mxCell id="2lmS-5YsYihyagzqlJ5x-17" value="&lt;b&gt;&lt;font style=&quot;font-size: 24px;&quot;&gt;MNRT DATA CENTER&lt;br&gt;&lt;/font&gt;&lt;/b&gt;" style="rounded=0;whiteSpace=wrap;html=1;strokeColor=#61D5FF;" vertex="1" parent="1">
          <mxGeometry x="-970" y="539" width="210" height="60" as="geometry" />
        </mxCell>
        <mxCell id="2lmS-5YsYihyagzqlJ5x-18" value="" style="endArrow=classic;html=1;rounded=0;shadow=0;strokeColor=default;strokeWidth=2;align=center;verticalAlign=middle;fontFamily=Helvetica;fontSize=11;fontColor=default;labelBackgroundColor=default;fillColor=#515151;" edge="1" parent="1">
          <mxGeometry width="50" height="50" relative="1" as="geometry">
            <mxPoint x="-500" y="870" as="sourcePoint" />
            <mxPoint x="-840" y="600" as="targetPoint" />
            <Array as="points">
              <mxPoint x="-840" y="870" />
            </Array>
          </mxGeometry>
        </mxCell>
        <mxCell id="2lmS-5YsYihyagzqlJ5x-19" value="" style="endArrow=classic;html=1;rounded=0;shadow=0;strokeColor=default;strokeWidth=2;align=center;verticalAlign=middle;fontFamily=Helvetica;fontSize=11;fontColor=default;labelBackgroundColor=default;fillColor=#515151;exitX=1;exitY=1;exitDx=0;exitDy=0;" edge="1" parent="1" source="2lmS-5YsYihyagzqlJ5x-23">
          <mxGeometry width="50" height="50" relative="1" as="geometry">
            <mxPoint x="-555" y="870" as="sourcePoint" />
            <mxPoint x="-900" y="600" as="targetPoint" />
            <Array as="points">
              <mxPoint x="-900" y="870" />
            </Array>
          </mxGeometry>
        </mxCell>
        <mxCell id="2lmS-5YsYihyagzqlJ5x-20" value="&lt;div&gt;&lt;b&gt;MPLS&lt;br&gt;&lt;/b&gt;&lt;/div&gt;&lt;div&gt;&lt;b&gt;VPN&lt;/b&gt;&lt;/div&gt;" style="ellipse;shape=cloud;whiteSpace=wrap;html=1;align=center;fillColor=#61D5FF;" vertex="1" parent="1">
          <mxGeometry x="-666" y="515" width="66" height="51" as="geometry" />
        </mxCell>
        <mxCell id="2lmS-5YsYihyagzqlJ5x-22" value="" style="fontColor=#0066CC;verticalAlign=top;verticalLabelPosition=bottom;labelPosition=center;align=center;html=1;outlineConnect=0;fillColor=#61D5FF;strokeColor=#61D5FF;gradientColor=none;gradientDirection=north;strokeWidth=2;shape=mxgraph.networks.radio_tower;" vertex="1" parent="1">
          <mxGeometry x="-1030" y="797" width="40" height="70" as="geometry" />
        </mxCell>
        <mxCell id="2lmS-5YsYihyagzqlJ5x-25" value="" style="rounded=0;whiteSpace=wrap;html=1;strokeColor=#61D5FF;fillColor=#61D5FF;" vertex="1" parent="1">
          <mxGeometry x="-948" y="165" width="170" height="180" as="geometry" />
        </mxCell>
        <mxCell id="2lmS-5YsYihyagzqlJ5x-26" value="" style="shape=image;imageAspect=0;aspect=fixed;verticalLabelPosition=bottom;verticalAlign=top;image=data:image/jpeg,/9j/4AAQSkZJRgABAQAAAQABAAD/2wBDAAgGBgcGBQgHBwcJCQgKDBQNDAsLDBkSEw8UHRofHh0aHBwgJC4nICIsIxwcKDcpLDAxNDQ0Hyc5PTgyPC4zNDL/2wBDAQkJCQwLDBgNDRgyIRwhMjIyMjIyMjIyMjIyMjIyMjIyMjIyMjIyMjIyMjIyMjIyMjIyMjIyMjIyMjIyMjIyMjL/wgARCADIAMgDASIAAhEBAxEB/8QAGgABAQADAQEAAAAAAAAAAAAAAAUCBAYDAf/EABQBAQAAAAAAAAAAAAAAAAAAAAD/2gAMAwEAAhADEAAAAr4AAAAAAAAAAAAACXmUU4UU4UUTIspwopwop2uWUTaKKcKKcKKXUAAJ1GdRAAJ+OWJSAAmU5hnQn0AACdRnUQACV6fPoABp5fcz2AA1drxPHc1tkAA86s2kAATqM6iE/mTtnJ9UaOOWJSAAmU5hnQn7xk5PVO2T6BOozqIAacQp7EHA+TquuaXTxepJ/wBp/TXe3MnQOMonRaVPIlfafmcS3R69DBwLNTlczp2mPLke94M+A3dLP3NWnMG55Vdc0fGv5E1WwNL7QwNf22oYNoz0s8AfTrW+HIPQmgbulumltatQ0Pf3Gfl91zYa43NX2+mj67P0l7ulumkBvaNI6tyAs/LOJwT78G7pZmG9lPKWzE2y4sCOsCPp9JxZ7+eiG7npGAHTc13hJWABKldUOH3qnuc7vQ+qOc3Zd86AADlOr58j1YfVEP3ldgctvVKxKqgABq6el0ZzXr8tnJX5144fqpPTHqABKq+RwvVyOkOTp+V8gb+p0Jq7XOdGAAAAAAAAAAAAAAAAAAAAAAAAAAAf/9oADAMBAAIAAwAAACHzzzzzzzzzzzzzzjDDDDDDDDDzzxTzyjzzzzzxTzwgADgABCgABzzxTDSjzzzjDRTzhSgiTDDSAhxDyQAgBywDxgAATAgBQQjiCgxQAAyggBBDzzgAgAjzxyhQzzyhwDxzzwSwxTzzwQyxTzzzzzzzzzzzzzzzzzzzzzzzzzzz/9oADAMBAAIAAwAAABDzzzzzzzzzzzzzzzzzDzzjTzzzzzzzwDzzxTzzzzzTzyjzyjzzzTzzzzADzzxTTzzzDCxwjDDBgxjDCgDABiQjBBSgDxQAAADgCgAABTCwASjTzzjDQATzyzjADzyxjCzzzySQhjzzggyTTzzzzzzzzzzzzzzzzzzzzzzzzzzz/8QAFBEBAAAAAAAAAAAAAAAAAAAAcP/aAAgBAgEBPwAp/8QAFBEBAAAAAAAAAAAAAAAAAAAAcP/aAAgBAwEBPwAp/8QAQxAAAAQEAAgJCgUEAwEAAAAAAQIDBAAFERITFBUgITFRkxAiMjVBVFWSsRYjUlNxgYKDkdEGM2FiwSQ0NmByofBz/9oACAEBAAE/Av8ATZiUy0xZoYVRMp764M1OiMkF6683sZIL115vYyQXrrzexkgvXXm9jJBeuvN7ExY4oxUXI7diYtOUp+sEbi9mTspnLggJ2UAh6awjJBeuvN7GSC9deb2MkF6683sZIL115vYyQXrrzewduLKZNClcuDgpfUDnrqCJcxxtimud27Axq8lT9YyQXrrzexkgvXXm9jJBeuvN7GSC9deb2MkF6683sS4pkpg9QwqihSWUvNXozXfPMv8Aj8M6d80LfD4hDDnSYfL8M5/zow+Z4RJOaEfi8RzmnPMw+DwzXfPMv+Pwzp3zQt8PiEMOdJh8vwzn/OjD5nhEk5oR+LxHOac8zD4PDNmSxW8zYrHrYW+tA/SMuMtp+4MZcZbT9wYy4y2n7gxlxltP3BjLjLafuDEzmjZzL1EU77zUpxf1hN6kymb3DXceylAr0RlxltP3BjLjLafuDGXGW0/cGMuMtp+4MZcZbT9wYUepPZmzwN3EvrUKdESyaNm0vTRUvA5a14v6xlxltP3BjLjLafuDGXGW0/cGMuMtp+4MZcZbT9wYlqxXEyfLErYaylQ/TNmBlxfNG6K4pYS6ogFdUYg97TPuwjEHvaZ92EYg97TPuwjEHvaZ92EYg97TPuwh8k+Zszr5ROa2miwNsBjbuYOkyPDJFTtoAFrrCMQe9pn3YRiD3tM+7CMQe9pn3YRiD3tM+7CMQe9pn3YQONtJg2TO8MqVS6oCWmoIYpPnjMi+UTlurosDbGIPe0z7sIxB72mfdhGIPe0z7sIxB72mfdhGIPe0z7sIl5lweu0FlxVwdtBEKa813zzL/j8M6d80LfD4hDDnSYfL8M5/zow+Z4RJOaEfi8RzmnPMw+DwzXfPMv8Aj8OCazMGCYAULljag2QpMHaprjOFPcNIZTpy3OAKmFVPpA2uE1CqplUINSmCoRO+aFvh8QhhzpMPl+Gc/wCdGHzPCJJzQj8XiMKKFSTMocaFKFRh7OnLg44I4pJ9AF1wlMHaJriuFPeNYlUyB+kIGCixeUG3gac8zD4PDNmCpEZqwUUNaQL6iPsjKrHrJInphGbKAPQAAH04ZO6TQlJBXUAhbxKWsTZ+1Xlqqaa5THGlAD2w3dINpo+wygEuspX2RlVj1kkZVY9ZJGVWPWSRlVj1kkZVY9ZJDh0g5mjHAqAe2+tPZEpftUZYkmouUpwrUB9sTh0mvKTCgoBy3gU1OGRGEJqmAdICA/SMqseskiXqkWmr9RM1xRsoIezhmT7EGuEtuMI0KEeUbv1aH0H7wefLqctu2NTaQfvGWT9UZ7uFKzlMypUwK6TpUAHQYIyS99UG8L94CUPBH8sofMLDZmiizTQEpTgXaHTGKt/UJdwIM3RMNTJEEdolgyDUhRMZFIChpEbQidnbndkFsKYls02cEmMgR6IuBJZYPLgqDU5QMVFISjpAbQgrdEo1KkQB2gWMVb+oS7gQ5ZpLM1EAKVMDdIB0wMoeAP5ZR+YWMkvfVBvC/eCVkyZVTJgZ0pWgCOgpYyyfqjPdwSfLp8hu2LXYQfvHlG79Wh9B+8S19j7XCW2mAaCETtHCytTaTjZks4zkyA6lkzE4ZS7EigtTqGKktoAQHkjthdd83XOkdytcUafmDGPO+tLbwYM8dGKJTOVhAdYCccwrx0UoFK5WAA1ABxjHnfWlt4MILvnC5EiOVrjDT8wYmzsVFAakUMZJHRUR5Q7eGZ8V0VENSJCp5kkRwUrT2n40KEBVI6Y6jBSDFEhxKOsBpwoqCiuRQNZTAMTFMEpgsAckRuD2Dp4QOi+YA5Uai4cJUIcAOIDTbHmOxlt4b7Rgk77ciq1pX84Yua4EFslGwYjS7DjFiOGwOR1MJStuGGLmuBw2SjYMBpdhxjBJ32ZFVrSv5wx5jsZbeG+0CdFiwFym1Fu4VqQgCcRGm3hlyYKTBEB5IDcPsDTCygrLHUHWYwjwlKJzgUNYjSEyAkkRMNRQpCihEUxUUMBShrEYm6eDmStOSfjh78x75xqzX2kwY/DwNGgu017OWmW4A2wi4WbGEyKgkEdkZVfdZPEumDpd4RBU4qpqcUxRhdpYGCTauREqg1NQaCEYH+qvxJ5grdWmtYbtLwwSjVyAmUChqDQAiYzF0i8OgkcUk0+KUoRlV91k8LOFnJgMsoJxDbDtoLRNC/lqFuENnAy821eL7CYMPizJQmCkyTEeSTjj7oTUIsmB0zAYo6hCJhMTv1NIiVMOSSH/AJ6XsnH7cEb3ZiXnZSuTpSOCge/RwSZQyJXiheUVGoRlRI2k7FuJukbIym37Pb9yBm1pRBu3SQMOi8hNMY+662v3hjH3XW1+8MY+662v3hgJtcUAcN0lzBovOTTGU2/Z7fuRlRIukjFuBugbInChlis1DcoyNR4FfNSlAnSqcVB92gMxh5mXPXG0uCD3xL5idgpoETJjyiR5OM/WL/UPtD6WJt5KqmkJzWmwnGzJZxnJkR1LEMTglzhBDDlcX2Kkt4kWyb03n/UNJfKnprUl3F/omp9o8nGfrF/qH2jycZ+sX+ofaPJxn6xf6h9o8nGfrF/qH2jycZ+sX+ofaHcvlTI1qq7i/wBEtPtFsm9N5/1ExcIL4Are+xIlvH4JpxXQIhqRIVPMYyxNxJUk1ROW42E4seTjP1i/1D7cChAVSOmOowUgxRIcSjrAacKKgorEUDWUwDDxleosu3OmqlUTUKbSUPZwyy7Kbe3XfnTO7Kbi7Xfws2diiLhydNJKoHoY2kweyFlBWWOoOsxhHhIUTnKQNYjQITICSRUw1FCmY/kaTtQVUz4NQdewYU/D7wnJwZ/YMEZOVFxQBI2EDWGyMguCkFRZRNMhQqI64Fds2SOm1uOc4WmVNo0foESBki4SWUWTKfSABWHlmOrYMAAgHEAAIkCd8zA3oFEf4/nOn6dkzE3plAf4hnZjqOEABIJwAQGJ+yRbponRTKTSIDSAXbOkiJurkzkC0qpQro/UIyC4MQqiKiahDBUB1Qdk5I4BAUjYQdQbYT/D7w/KwZPaMMJGk0UBVQ+EUDVsDPbf5G8/4B/ETpTBypX91C8EmDF5LhR/cf8A99IEajWPw0n/AHCnsLnfiVPS3U9pYAaDUInIYxJsKH7T/wDvrwSVTCSpL9tSw5/yRn/8x8Bz3MxaNRoqqF3ohpGMrOHH9kyOb959AQiMyCbODEKkZxaF5eimiHzzGUAQfILNuNW4oVCDsPNGVQXTWIUKjTQIe6HX9L+HbenBAX68H4fTslt3pnEf4zvxAnfLbvQOA/xwNv6r8O29OCEv0gjDzRVV100SGCoV0iPuhi8xdAUGKCznTW4wUCFhmRpu3MYqRXFo2F6KaYys4b/3rI5f3k0hDaYtHQ0SVC70R0Dms27w07FRwjXSN5jF0e7gZJzAJ4ZRQhtIjeamikLpGUwdqltDcYOgwbIaNHYTg4GQokYRA/F4olh42B20OgI0u6dkBIHuFtoS307obIFbNiIl1FCmc5QK5bHRNqMEDIHuFtoS307tENGxWjQiAabQ17YdNXQzggFQqkUQAnF4oFhBI6d9yl1TcUOgobIeJvxnpVEyGoAhYaminA8bvCzwFEEKaQtMUuj3/wCnf//EACkQAQABAgMIAwEBAQEAAAAAAAERACExUfAQIEFhobHB0XGBkfFg4TD/2gAIAQEAAT8h/wAaYjcsi0ita9VrXqta9VrXqta9UtswEpcGXOsKUS3E7VrXqta9VrXqta9VrXqsKUS3B70t8yFmyMuVa16rWvVa16rWvVa16p2G5Zl0u70+/wBWo597Xcu/V0+79Pv9Wo597Xcu/V0+72sRJJjDeMMMMMZVWBZgGmqAxLgv77xhhhhjXIYtxW9qR2wA3FPneMMMMMtUiSDBG6eDMUwJrTnmtOea055rTnmtOeaFeRpMg80bAfhoRWnPNac81pzzWnPNac80bCfhoTSjzNohHitOea055rTnmtOea055o+mY5gTu9Pv9Wo597Xcu/V0+79PswZYmwGbT+WyUH0VxWPEj4agoImZsq1HPva7l2VTcETlQtxOIXy0NlslD9NCiwpgMzZ0+7lyDlFP6NYGnxSD3XaJYIfv3XPtZFtfqnJH/AHvO7u/4pyTXk6oi9pTwQ/frbgefFJPcK/p0WIecbVq3PMJ5/mzpB5WmRT+991ZuhE5+7ZNggIIFxbHWhEfiTKxdhCdvxAtGe2REFQCDLMTLlsOlyCJkzoz2wIkoOX4AHYQci8ABwNJAgOJc67BFuqU1nrN1r+991J52iTsdL1tPYTy/amgSofrHou4zuhKSdQpEYcdhrEtZ4Yyo8+U7uNac80CBoRCfu4KBoBAftac80+fCcHnjRiEnMeOs9gKwXWmdxMCXqu5NEhV/eHQKxwe/hKMeHI5m3BGT9NesMo77ZMIFLgsx/tA2CqX1pkOD+VljGxXLCuvVcZ4Vf4sbEcsKtrjAcH8pCw1SKiBS4rsP5t9yLx2rEOT9u015MPlrDB5+AoxBzwFG7hVzhPedzmlflUdk2LckJOa5RgIhViV/XqzScZtGNNAJJA64EfFR5TeajCkgFkI9JkjKaTk8DFs6/r0YCIFYFXZEmc1jZzaPyr0O5x3VcoT3ijGHPEVdHVgsc292oj3RJ0edz0Vy542KfCmiblLpuvYy/taF7qDjZYDyZrR3mtHea0d5qDjYYDzZrQvdDouzMP7TjyJoi67PR3P+rcinZBerxV1dXCzzL2dlYFIRmMODgHCdxndTUk6hSIw2Sjoy5gWv4XrTQgEyBTeVq1atWKMImRIU/hetX7LmAaBUC60hN1YEvVdwFIjmCuBiPCNtbHB7+Eo14cvk24JyfppJfhE4y+LaVPiD849J3iJcyfnDpG1Y5ghEvbFWIen7dosyb5GsMVn4DcQ5e2ynipZQff1KskxOcXFyxofrkpQHIKmc+XAWJzOdADSLzFpe5VpwUEgY35tLDaV2q04KCQsUBdYvE2t2aiEvFicDlZlJxclKR5JV1Gozg4meFQygfn6FIcvbYTzv6vlXEN4H2+p2BmEv1aiIrqy1eUyuq+N60Tg3RPNISQjJQZJD922OYZH0+o/8Cqos/wAAwrBmuH8TrQsAjYoQDpUw4ATNh6X4Vxk2ULNVXeGT+YD3dkDDQu29hPQu+y1xIXzIOxXGX5QswUzOLUTbdLcWlBFgwQkPWsOeY6TrQpt/wHHddiMg8Wl+RGwHMI1/hh+iKXTAmGeJVcBXVsy4ZVDqi2YXKXKUuBH5j0pV5ujxzd514hTlk0OFpcDox6U4sbmY3a4/uvJnwzpVsWYI4EU0mIVvjl+2diohlXi8v2Z/x3//xAAoEAEAAQMCBAcBAQEAAAAAAAABEQAhMUFRECBhcYGRobHB8PHRMGD/2gAIAQEAAT8Q/wCNkGQC8Vy5k1HLX5Kv5Kv5Kv5Kv5KrizvxkZAOFrV0UwsjIRMjEZa/JV/JV/JV/JV/JVEs0iyEAAzK84Kxix4YGBTga1+Sr+Sr+Sr+Sr+SrMkgM8wsZdAwf5pev51p6Wp6vmX2O7/NL1/OtPS1PV8y+x3csMOXpkAsdUr6d8V9O+K+nfFfTvivp3xSe8icy102GnpvlOTaMYV9O+K+nfFfTvivp3xX074prTJIzrM5U+uInENcNhX074r6d8V9O+K+nfFfTviiVcrDZCz1Hl0EbFiLPZM681SpUqVGAaub0MsasaVbhCHbrlIunXPNUqVKlQ5QxHLphZuHTFMg8Dchkmbsa81SpUqVNU+wYqx3DOn+aXr+daelqer5l9ju50guSuOMkXibBqzs1NimfDtAHlS6yhEbd7z0VO2aJWU+oSV6/nWnpanq6Qn2n0BLQ7CpGbc7z0EO+aghTL37SD5UMzTVjE2k2TR7nD7Hdy6KXJSIT4oeNCoEz1fyl1Y9dMBxC4IyYdp4tFrDJMwV02Fret3cyY7Q86/Yf5X7D/K/Yf5X7D/K/Yf5TVDr9xInvD5U+ZZJmQtNkfGn0HkwbXxOJ+Uj3UXFBFRsdX8rSE8KDGPETiIDIYiQWUaAu9u9XaO83Ja9ZibMHBiBUJMyoDMIy3E6RVorsBjOphsdiphKYqxRmcq+Fq+4fFQN4kZBBKm1KwCCCJVYsBRYAgBv+ExHpwc4yErG7JiaFgFEUSIxcSpG8QMkhhDavuHxUtgMNUKxEwh4WoLsgRHUSWO5wtRTACkIKzDZsD1mmLzchp1iYuy1do4wZxyYAZWyDtfvXqQL0LkjKBIXBNe/rqRAgYR0eDq4MWbMHJs72mxSluYR2GxITo8JSojNJWRGCO3IAAxCRAAQANOEoX9cBuWwJXoUZuDsmzF1SHjFngDJRAGVpghCJhkvJPEoTyhVPXpPA+9dL8RJD6nGZeEjVBj0qAFl5hEg6RDw4CiIwmtGUa7jLZb9bTbQUKQVgpJrOdBiy826lIs6tZbHXZ8q+VHuLNNS+qaynXcqczxos3Xm3RpUAjDSwoCedbJZpab6GlllzwhTvFwCydIh41KfdLRR+eMV4nukHq0FMdhQHtUtNxQD+9NahjWEwASchal4I6QvV8rwEC5iQIdyLnUDWrZLurkw+VfgP5TjMR11SEJIL9hq3P4QmJWKZd968gCys+0oZH0ADTXJk7bUKmA4RCEpLJftFfgP5V8l3VyYPOo6JNEMO5AL1U04XBZC7VTqed5IRSZMBA0SR3FIPumlSaZQ71DzGmkVJtfgvLz6pLk3ZvxF5Yz4ATYAQSRhzT9PwRumJV+MoSUcUBaYHJZs2SCrilDTIr8ZQ+t5UbJiFyiJkAJSFgxw26TahEnRZnIFFNolV49iVPGZQx1DzGus8As6XpQohYBe5GKBKuCS96yMlEI5GnXYMJluk2Ld+Gru+xDwwfB5goUKFChdBI8wuB4s8NU6SJSYbLFm3aibUQBq0IxKJhCvfkk6d5ATKyC9xChTPc0D71FeJ7JD6nGY+yWqD8VIHNMLJaAE5JtxKEk1NuPjBzASSYvl+EHEzIIaKCUoYyxapSrpaKPzxghEt0g9WgljtKA9uRZNwd/JIp1R8JqCjikojsF6YnnQKYRsrGXel0yY7SuRYxNRq/L1kakLKpzGasySCMUHf0KgCopAYIOxNS4SeJocxjwTe8DTOXZGURT5z4VZukGaGXb1KhNOVrARYWEnfFDQkx2kWws4mryepVMp2VzJtUNHCyo8EvS6Tg7+CVRor4T/AIPrdgXUQz6OCDEEa7S9gpHZZHValxQT9GnNhzRHt8ijXBkNExUXBGUvaHsXCWrJdBLH+AFF+pJoySDJhe8U/b+LD7NN5bIHSCS4b97tOF6VLC4xNyycUVn4nnQgxCUxNbAAN/kJwnWCU7hHufNKC5p2GfceEsaK2oIFmwnnUg1SRzFG62umCwTFiwXaSmiwmkEt036lyj6exZY9dC/Vg1YJQgsNp5VutgW4EhE2GSDaawQVGR8UYgQQ7Jm3em5LASVoiXMOnSZpi4ThOrIJDEIvJfWoogxEyhI2kLbTWCpmRHc9mjKDwULz4ir48yOH4yV56kIPhWCpiBDd9mkyUBiJSkbKttqeqEYxqyRgTKby20onQ1ElaAFjLr1iaXqtJeQIIN0zd6UgkJJQzmhBZCAibjJDtH/Hf//Z;" vertex="1" parent="1">
          <mxGeometry x="-943" y="174" width="162" height="162" as="geometry" />
        </mxCell>
        <mxCell id="2lmS-5YsYihyagzqlJ5x-27" value="" style="fontColor=#0066CC;verticalAlign=top;verticalLabelPosition=bottom;labelPosition=center;align=center;html=1;outlineConnect=0;fillColor=#61D5FF;strokeColor=#61D5FF;gradientColor=none;gradientDirection=north;strokeWidth=2;shape=mxgraph.networks.radio_tower;" vertex="1" parent="1">
          <mxGeometry x="-770" y="797" width="40" height="70" as="geometry" />
        </mxCell>
        <mxCell id="2lmS-5YsYihyagzqlJ5x-28" value="" style="fontColor=#0066CC;verticalAlign=top;verticalLabelPosition=bottom;labelPosition=center;align=center;html=1;outlineConnect=0;fillColor=#61D5FF;strokeColor=#61D5FF;gradientColor=none;gradientDirection=north;strokeWidth=2;shape=mxgraph.networks.radio_tower;" vertex="1" parent="1">
          <mxGeometry x="-1315" y="960" width="40" height="70" as="geometry" />
        </mxCell>
        <mxCell id="2lmS-5YsYihyagzqlJ5x-29" value="" style="fontColor=#0066CC;verticalAlign=top;verticalLabelPosition=bottom;labelPosition=center;align=center;html=1;outlineConnect=0;fillColor=#61D5FF;strokeColor=#61D5FF;gradientColor=none;gradientDirection=north;strokeWidth=2;shape=mxgraph.networks.radio_tower;" vertex="1" parent="1">
          <mxGeometry x="-435" y="960" width="40" height="70" as="geometry" />
        </mxCell>
        <mxCell id="2lmS-5YsYihyagzqlJ5x-31" value="" style="endArrow=classic;html=1;rounded=0;shadow=0;strokeColor=default;strokeWidth=2;align=center;verticalAlign=middle;fontFamily=Helvetica;fontSize=11;fontColor=default;labelBackgroundColor=default;fillColor=#515151;exitX=0.5;exitY=0;exitDx=0;exitDy=0;entryX=0.5;entryY=1;entryDx=0;entryDy=0;" edge="1" parent="1" source="2lmS-5YsYihyagzqlJ5x-17" target="2lmS-5YsYihyagzqlJ5x-25">
          <mxGeometry width="50" height="50" relative="1" as="geometry">
            <mxPoint x="-971" y="617" as="sourcePoint" />
            <mxPoint x="-971" y="370" as="targetPoint" />
          </mxGeometry>
        </mxCell>
        <mxCell id="2lmS-5YsYihyagzqlJ5x-32" value="" style="fontColor=#0066CC;verticalAlign=top;verticalLabelPosition=bottom;labelPosition=center;align=center;html=1;outlineConnect=0;fillColor=#61D5FF;strokeColor=#61D5FF;gradientColor=none;gradientDirection=north;strokeWidth=2;shape=mxgraph.networks.radio_tower;" vertex="1" parent="1">
          <mxGeometry x="-860" y="410" width="40" height="70" as="geometry" />
        </mxCell>
        <mxCell id="2lmS-5YsYihyagzqlJ5x-33" value="&lt;b&gt;&lt;font style=&quot;font-size: 24px;&quot;&gt;NTAP&lt;/font&gt;&lt;/b&gt;" style="rounded=0;whiteSpace=wrap;html=1;strokeColor=#61D5FF;" vertex="1" parent="1">
          <mxGeometry x="-1275" y="160" width="120" height="40" as="geometry" />
        </mxCell>
        <mxCell id="2lmS-5YsYihyagzqlJ5x-34" value="&lt;b&gt;&lt;font style=&quot;font-size: 24px;&quot;&gt;DPCU&lt;/font&gt;&lt;/b&gt;" style="rounded=0;whiteSpace=wrap;html=1;strokeColor=#61D5FF;" vertex="1" parent="1">
          <mxGeometry x="-600" y="160" width="120" height="40" as="geometry" />
        </mxCell>
        <mxCell id="2lmS-5YsYihyagzqlJ5x-35" value="" style="endArrow=classic;html=1;rounded=0;shadow=0;strokeColor=default;strokeWidth=2;align=center;verticalAlign=middle;fontFamily=Helvetica;fontSize=11;fontColor=default;labelBackgroundColor=default;fillColor=#515151;exitX=0;exitY=0.75;exitDx=0;exitDy=0;entryX=0.5;entryY=1;entryDx=0;entryDy=0;" edge="1" parent="1" source="2lmS-5YsYihyagzqlJ5x-25" target="2lmS-5YsYihyagzqlJ5x-33">
          <mxGeometry width="50" height="50" relative="1" as="geometry">
            <mxPoint x="-1520" y="480" as="sourcePoint" />
            <mxPoint x="-1210" y="210" as="targetPoint" />
            <Array as="points">
              <mxPoint x="-1215" y="300" />
            </Array>
          </mxGeometry>
        </mxCell>
        <mxCell id="2lmS-5YsYihyagzqlJ5x-36" value="" style="endArrow=classic;html=1;rounded=0;shadow=0;strokeColor=default;strokeWidth=2;align=center;verticalAlign=middle;fontFamily=Helvetica;fontSize=11;fontColor=default;labelBackgroundColor=default;fillColor=#515151;exitX=1;exitY=0.75;exitDx=0;exitDy=0;entryX=0.5;entryY=1;entryDx=0;entryDy=0;" edge="1" parent="1" source="2lmS-5YsYihyagzqlJ5x-25" target="2lmS-5YsYihyagzqlJ5x-34">
          <mxGeometry width="50" height="50" relative="1" as="geometry">
            <mxPoint x="-284" y="300" as="sourcePoint" />
            <mxPoint x="-546" y="210" as="targetPoint" />
            <Array as="points">
              <mxPoint x="-540" y="300" />
            </Array>
          </mxGeometry>
        </mxCell>
        <mxCell id="2lmS-5YsYihyagzqlJ5x-37" value="&lt;font style=&quot;font-size: 18px;&quot;&gt;&lt;b&gt;MNRT HQ&lt;br&gt;&lt;/b&gt;&lt;/font&gt;" style="text;html=1;align=center;verticalAlign=middle;whiteSpace=wrap;rounded=0;" vertex="1" parent="1">
          <mxGeometry x="-966.5" y="138" width="207" height="30" as="geometry" />
        </mxCell>
        <mxCell id="2lmS-5YsYihyagzqlJ5x-38" value="&lt;b&gt;&lt;font style=&quot;font-size: 18px;&quot; color=&quot;#ff3333&quot;&gt;UHTMIS&lt;/font&gt;&lt;/b&gt;" style="text;html=1;align=center;verticalAlign=middle;whiteSpace=wrap;rounded=0;" vertex="1" parent="1">
          <mxGeometry x="-934" y="314" width="60" height="30" as="geometry" />
        </mxCell>
      </root>
    </mxGraphModel>
  </diagram>
</mxfile>
